#!OML:ASF I:\Actors\actors\Patient Classification 1\Patient 1\Session 1\Subject1.ASF
:FULLY-SPECIFIED
:DEGREES
762
root -0.513417 17.6561 7.53299 9.27279 0.668331 -6.88462
lowerback 6.76479 -0.232495 -0.0574139
upperback -10.2784 -0.0516233 2.13399
thorax -15.189 0.150294 2.42716
lowerneck -13.0562 0.563336 4.20859
upperneck 18.9585 1.07753 -5.81832
head 8.06806 0.238053 -2.52484
rclavicle -1.04362e-015 1.43125e-014
rhumerus 17.8089 18.4261 -67.5013
rradius 110.331
rwrist -23.8442
rhand -18.5669 -41.8044
rfingers 7.12502
rthumb 7.72318 -71.6434
lclavicle -1.04362e-015 1.43125e-014
lhumerus 73.7821 -28.6554 53.6332
lradius 90.2346
lwrist 48.7726
lhand -14.1766 -1.69821
lfingers 7.12502
lthumb 11.9588 27.9402
rfemur -6.8779 19.6504 23.6505
rtibia 6.46069
rfoot -12.9335 -19.8214
rtoes -2.30789
lfemur 2.75944 -42.3809 -14.0806
ltibia -3.46063
lfoot -18.9129 51.4638
ltoes 10.9503
763
root -0.489507 17.6528 7.59698 9.01586 1.09513 -6.79494
lowerback 6.50328 -0.356024 -0.16731
upperback -11.07 -0.20695 2.27675
thorax -15.9938 0.118708 2.69985
lowerneck -13.0369 0.354202 4.02546
upperneck 19.9115 0.861733 -5.80065
head 8.37028 0.120163 -2.5272
rclavicle 4.17448e-015 -8.34896e-015
rhumerus 15.981 16.209 -67.2305
rradius 113.15
rwrist -24.5159
rhand -18.6115 -42.0317
rfingers 7.12502
rthumb 7.68016 -71.8723
lclavicle 4.17448e-015 -8.34896e-015
lhumerus 76.2507 -30.4456 51.5602
lradius 91.0534
lwrist 49.0827
lhand -13.9772 -1.72065
lfingers 7.12502
lthumb 12.1511 27.9065
rfemur -5.93383 20.0773 23.7513
rtibia 5.90855
rfoot -13.1733 -20.6423
rtoes -2.16935
lfemur 3.34153 -42.2209 -14.6098
ltibia -3.57984
lfoot -18.2468 51.0018
ltoes 10.0836
764
root -0.469099 17.6501 7.65597 8.74468 1.58495 -6.7401
lowerback 5.91416 -0.543016 -0.330168
upperback -11.5223 -0.466169 2.41761
thorax -16.16 0.0358295 3.00369
lowerneck -13.1779 0.246197 4.13409
upperneck 20.4598 0.723951 -5.89488
head 8.57364 0.0494677 -2.60358
rclavicle -9.64106e-015 1.07344e-014
rhumerus 14.5158 13.8376 -66.9484
rradius 116.29
rwrist -24.3555
rhand -18.6049 -42.1813
rfingers 7.12502
rthumb 7.68649 -72.0216
lclavicle -9.64106e-015 1.07344e-014
lhumerus 79.3783 -31.7955 49.0331
lradius 91.8088
lwrist 49.7068
lhand -13.9189 -1.93535
lfingers 7.12502
lthumb 12.2073 27.6884
rfemur -5.0076 20.511 23.9199
rtibia 5.39144
rfoot -13.4435 -21.5083
rtoes -1.65997
lfemur 3.7527 -41.7465 -14.9255
ltibia -3.67481
lfoot -17.0918 50.1923
ltoes 8.7961
765
root -0.450011 17.6487 7.7188 8.54783 2.1624 -6.61112
lowerback 5.05405 -0.782595 -0.543436
upperback -11.8879 -0.815389 2.49106
thorax -16.0301 -0.0946891 3.26169
lowerneck -13.4342 0.204274 3.93963
upperneck 21.0855 0.673486 -5.66423
head 8.83039 0.0288663 -2.51123
rclavicle 9.0447e-015 -4.37326e-015
rhumerus 12.9621 10.8269 -66.9582
rradius 119.361
rwrist -25.1761
rhand -18.5923 -41.8711
rfingers 7.12502
rthumb 7.69864 -71.711
lclavicle 9.0447e-015 -4.37326e-015
lhumerus 82.7982 -33.0371 46.2114
lradius 92.6887
lwrist 50.4664
lhand -13.9654 -1.99557
lfingers 7.12502
lthumb 12.1625 27.6309
rfemur -4.11498 20.9102 24.0022
rtibia 4.8292
rfoot -13.7517 -22.4141
rtoes -0.621346
lfemur 3.98937 -41.2298 -15.2148
ltibia -3.68111
lfoot -16.0476 49.2311
ltoes 7.56158
766
root -0.433198 17.6485 7.78723 8.51137 2.82678 -6.51222
lowerback 4.11823 -1.05484 -0.732485
upperback -12.3769 -1.20143 2.56493
thorax -16.0017 -0.24266 3.5088
lowerneck -13.204 0.115047 3.86484
upperneck 21.1795 0.589816 -5.7244
head 8.81497 -0.0205826 -2.52883
rclavicle -4.62174e-015 4.57205e-015
rhumerus 11.0048 7.91226 -67.0319
rradius 122.839
rwrist -24.8675
rhand -18.2511 -41.7818
rfingers 7.12502
rthumb 8.02801 -71.6093
lclavicle -4.62174e-015 4.57205e-015
lhumerus 86.2258 -34.3731 43.2792
lradius 93.7989
lwrist 50.818
lhand -14.3786 -1.5397
lfingers 7.12502
lthumb 11.764 28.1099
rfemur -3.35168 21.3328 24.1013
rtibia 4.22373
rfoot -14.0809 -23.4367
rtoes 0.362279
lfemur 4.00247 -40.8187 -15.3011
ltibia -3.67317
lfoot -15.3972 48.2341
ltoes 6.78167
767
root -0.418973 17.6493 7.855 8.57339 3.57 -6.51436
lowerback 3.34755 -1.36063 -0.822142
upperback -12.9967 -1.61231 2.67497
thorax -16.2477 -0.402942 3.75232
lowerneck -13.186 -0.0305257 3.72714
upperneck 21.6119 0.47368 -5.89602
head 8.95315 -0.106718 -2.58615
rclavicle -3.47873e-016 -7.95139e-016
rhumerus 8.70344 4.76624 -67.265
rradius 126.569
rwrist -25.0334
rhand -17.7809 -41.803
rfingers 7.12502
rthumb 8.48176 -71.6126
lclavicle -3.47873e-016 -7.95139e-016
lhumerus 89.6035 -35.7534 40.2104
lradius 95.3234
lwrist 50.8444
lhand -13.7823 -1.85399
lfingers 7.12502
lthumb 12.339 27.7619
rfemur -2.72027 21.7413 24.3052
rtibia 3.6204
rfoot -14.3613 -24.5406
rtoes 1.28312
lfemur 3.82825 -40.4587 -15.113
ltibia -3.68954
lfoot -14.6217 47.2226
ltoes 5.734
768
root -0.406444 17.6501 7.92038 8.61466 4.35093 -6.58716
lowerback 2.61471 -1.66939 -0.832762
upperback -13.558 -2.01625 2.79544
thorax -16.4482 -0.569723 3.95675
lowerneck -13.4986 -0.167876 3.69286
upperneck 22.3775 0.414828 -6.33438
head 9.27282 -0.193237 -2.75862
rclavicle -5.71506e-015 1.43125e-014
rhumerus 6.37495 1.43232 -67.5423
rradius 130.486
rwrist -25.4075
rhand -17.4775 -41.8812
rfingers 7.12502
rthumb 8.77455 -71.6788
lclavicle -5.71506e-015 1.43125e-014
lhumerus 93.1081 -36.9921 36.8881
lradius 97.4076
lwrist 51.1903
lhand -13.6846 -1.3571
lfingers 7.12502
lthumb 12.4332 28.2531
rfemur -2.09125 22.134 24.6228
rtibia 3.05545
rfoot -14.6515 -25.6594
rtoes 2.08613
lfemur 3.66667 -40.1026 -14.8288
ltibia -3.72107
lfoot -13.7806 46.1858
ltoes 4.52003
769
root -0.395109 17.65 7.98468 8.59805 5.14314 -6.67706
lowerback 1.84449 -1.95824 -0.853827
upperback -13.9851 -2.39178 2.93418
thorax -16.4535 -0.726632 4.16803
lowerneck -13.1654 -0.299781 3.20232
upperneck 22.3255 0.329348 -6.24711
head 9.18778 -0.261068 -2.65022
rclavicle 1.04362e-015 -5.08889e-014
rhumerus 5.10507 -2.12711 -67.6949
rradius 134.561
rwrist -26.2656
rhand -17.2601 -42.897
rfingers 7.12502
rthumb 8.9844 -72.6857
lclavicle 1.04362e-015 -5.08889e-014
lhumerus 96.8199 -37.9196 33.4372
lradius 99.7673
lwrist 52.034
lhand -13.2489 -0.888194
lfingers 7.12502
lthumb 12.8532 28.6961
rfemur -1.40881 22.4546 25.003
rtibia 2.53608
rfoot -14.9962 -26.6836
rtoes 2.48961
lfemur 3.63949 -39.8966 -14.6082
ltibia -3.7656
lfoot -13.2472 45.2445
ltoes 3.6022
770
root -0.38656 17.6472 8.04539 8.50574 5.85681 -6.74512
lowerback 1.14587 -2.2639 -0.993575
upperback -14.3133 -2.79446 3.14013
thorax -16.3681 -0.878404 4.51736
lowerneck -12.866 -0.360617 2.80429
upperneck 22.1819 0.357032 -6.33968
head 9.08418 -0.286976 -2.60511
rclavicle -1.12313e-014 8.94531e-016
rhumerus 3.4381 -5.05195 -67.8025
rradius 137.798
rwrist -25.3408
rhand -17.4374 -42.538
rfingers 7.12502
rthumb 8.81325 -72.334
lclavicle -1.12313e-014 8.94531e-016
lhumerus 100.454 -38.4359 30.0759
lradius 102.06
lwrist 52.9922
lhand -12.6121 -0.608882
lfingers 7.12502
lthumb 13.4671 28.9357
rfemur -0.697964 22.7516 25.3874
rtibia 2.08691
rfoot -15.3677 -27.5972
rtoes 2.76044
lfemur 3.76636 -39.7623 -14.5213
ltibia -3.82511
lfoot -12.75 44.4716
ltoes 2.54934
771
root -0.379332 17.6409 8.09836 8.3011 6.39737 -6.77125
lowerback 0.554267 -2.61416 -1.2304
upperback -14.4643 -3.25906 3.42773
thorax -16.1055 -1.04885 5.00852
lowerneck -12.8074 -0.270337 2.31891
upperneck 21.9271 0.549161 -6.1905
head 8.99635 -0.218268 -2.4434
rclavicle 1.49337e-014 -1.61016e-014
rhumerus 1.92754 -7.5194 -67.9465
rradius 140.42
rwrist -24.7164
rhand -17.8502 -41.4408
rfingers 7.12502
rthumb 8.41493 -71.2532
lclavicle 1.49337e-014 -1.61016e-014
lhumerus 103.737 -38.3097 26.9487
lradius 104.022
lwrist 53.8636
lhand -12.1321 -0.399299
lfingers 7.12502
lthumb 13.9297 29.1141
rfemur 0.0231072 22.9889 25.7361
rtibia 1.77757
rfoot -15.7464 -28.3183
rtoes 3.18921
lfemur 4.16766 -39.8389 -14.7163
ltibia -3.87338
lfoot -12.4907 44.0659
ltoes 1.86999
